<svg width="255" height="48" viewBox="0 0 255 48" fill="none" xmlns="http://www.w3.org/2000/svg">
<path d="M62.2354 42.0173H54.6602V5.25217H62.2354V42.0173Z" fill="white"/>
<path d="M81.2492 21.8167L88.9002 5.25217H97.1825L85.1126 28.6849V42.0173H77.4111V28.6849L65.3412 5.25217H73.6488L81.2492 21.8167Z" fill="white"/>
<path d="M134.175 34.4421H120.893L118.368 42.0173H110.313L123.999 5.25217H131.019L144.78 42.0173H136.725L134.175 34.4421ZM122.938 28.3061H132.13L127.509 14.5445L122.938 28.3061Z" fill="white"/>
<path d="M162.532 34.4673C162.532 33.5751 162.085 32.8765 161.193 32.3715C160.318 31.8497 158.904 31.3867 156.951 30.9827C150.453 29.6192 147.204 26.8584 147.204 22.7005C147.204 20.2764 148.206 18.2563 150.209 16.6403C152.229 15.0074 154.864 14.1909 158.113 14.1909C161.58 14.1909 164.35 15.0074 166.42 16.6403C168.508 18.2732 169.551 20.3942 169.551 23.0035H162.254C162.254 21.9598 161.917 21.1012 161.244 20.4279C160.57 19.7377 159.518 19.3926 158.087 19.3926C156.859 19.3926 155.907 19.6704 155.234 20.2259C154.561 20.7814 154.224 21.4884 154.224 22.347C154.224 23.155 154.603 23.8115 155.36 24.3165C156.135 24.8047 157.431 25.234 159.249 25.6043C161.067 25.9578 162.599 26.3618 163.845 26.8163C167.7 28.2304 169.627 30.6797 169.627 34.1643C169.627 36.6557 168.558 38.6758 166.42 40.2245C164.282 41.7564 161.522 42.5223 158.138 42.5223C155.849 42.5223 153.812 42.1183 152.027 41.3103C150.26 40.4854 148.871 39.366 147.861 37.9519C146.851 36.5211 146.346 34.9808 146.346 33.3311H153.265C153.332 34.6273 153.812 35.6205 154.704 36.3106C155.596 37.0008 156.791 37.3459 158.289 37.3459C159.687 37.3459 160.739 37.085 161.446 36.5632C162.17 36.0245 162.532 35.3259 162.532 34.4673Z" fill="white"/>
<path d="M189.146 34.4673C189.146 33.5751 188.7 32.8765 187.808 32.3715C186.932 31.8497 185.518 31.3867 183.565 30.9827C177.068 29.6192 173.819 26.8584 173.819 22.7005C173.819 20.2764 174.82 18.2563 176.824 16.6403C178.844 15.0074 181.478 14.1909 184.727 14.1909C188.195 14.1909 190.964 15.0074 193.035 16.6403C195.122 18.2732 196.166 20.3942 196.166 23.0035H188.868C188.868 21.9598 188.531 21.1012 187.858 20.4279C187.185 19.7377 186.133 19.3926 184.702 19.3926C183.473 19.3926 182.522 19.6704 181.848 20.2259C181.175 20.7814 180.838 21.4884 180.838 22.347C180.838 23.155 181.217 23.8115 181.975 24.3165C182.749 24.8047 184.045 25.234 185.863 25.6043C187.681 25.9578 189.213 26.3618 190.459 26.8163C194.314 28.2304 196.241 30.6797 196.241 34.1643C196.241 36.6557 195.172 38.6758 193.035 40.2245C190.897 41.7564 188.136 42.5223 184.752 42.5223C182.463 42.5223 180.426 42.1183 178.642 41.3103C176.874 40.4854 175.485 39.366 174.475 37.9519C173.465 36.5211 172.96 34.9808 172.96 33.3311H179.879C179.946 34.6273 180.426 35.6205 181.318 36.3106C182.21 37.0008 183.406 37.3459 184.904 37.3459C186.301 37.3459 187.353 37.085 188.06 36.5632C188.784 36.0245 189.146 35.3259 189.146 34.4673Z" fill="white"/>
<path d="M208.665 42.0173H201.342V14.696H208.665V42.0173ZM200.913 7.62574C200.913 6.53154 201.275 5.63093 201.999 4.92391C202.739 4.21688 203.741 3.86337 205.003 3.86337C206.249 3.86337 207.242 4.21688 207.983 4.92391C208.724 5.63093 209.094 6.53154 209.094 7.62574C209.094 8.73678 208.715 9.64581 207.958 10.3528C207.217 11.0598 206.232 11.4134 205.003 11.4134C203.775 11.4134 202.781 11.0598 202.024 10.3528C201.283 9.64581 200.913 8.73678 200.913 7.62574Z" fill="white"/>
<path d="M229.497 34.4673C229.497 33.5751 229.051 32.8765 228.158 32.3715C227.283 31.8497 225.869 31.3867 223.916 30.9827C217.418 29.6192 214.169 26.8584 214.169 22.7005C214.169 20.2764 215.171 18.2563 217.174 16.6403C219.194 15.0074 221.829 14.1909 225.078 14.1909C228.546 14.1909 231.315 15.0074 233.385 16.6403C235.473 18.2732 236.516 20.3942 236.516 23.0035H229.219C229.219 21.9598 228.882 21.1012 228.209 20.4279C227.536 19.7377 226.483 19.3926 225.053 19.3926C223.824 19.3926 222.873 19.6704 222.199 20.2259C221.526 20.7814 221.189 21.4884 221.189 22.347C221.189 23.155 221.568 23.8115 222.325 24.3165C223.1 24.8047 224.396 25.234 226.214 25.6043C228.032 25.9578 229.564 26.3618 230.81 26.8163C234.665 28.2304 236.592 30.6797 236.592 34.1643C236.592 36.6557 235.523 38.6758 233.385 40.2245C231.247 41.7564 228.487 42.5223 225.103 42.5223C222.814 42.5223 220.777 42.1183 218.992 41.3103C217.225 40.4854 215.836 39.366 214.826 37.9519C213.816 36.5211 213.311 34.9808 213.311 33.3311H220.23C220.297 34.6273 220.777 35.6205 221.669 36.3106C222.561 37.0008 223.756 37.3459 225.255 37.3459C226.652 37.3459 227.704 37.085 228.411 36.5632C229.135 36.0245 229.497 35.3259 229.497 34.4673Z" fill="white"/>
<path d="M250.051 7.97925V14.696H254.722V20.0491H250.051V33.6846C250.051 34.6946 250.244 35.4185 250.632 35.8561C251.019 36.2938 251.759 36.5127 252.854 36.5127C253.662 36.5127 254.377 36.4537 255 36.3359V41.8658C253.569 42.3035 252.096 42.5223 250.581 42.5223C245.464 42.5223 242.854 39.9383 242.753 34.7703V20.0491H238.764V14.696H242.753V7.97925H250.051Z" fill="white"/>
<path d="M39.7279 3.97278H7.94557C5.76053 3.97278 3.99264 5.76053 3.99264 7.94557L3.97278 43.7007L11.9184 35.7551H39.7279C41.9129 35.7551 43.7007 33.9674 43.7007 31.7823V7.94557C43.7007 5.76053 41.9129 3.97278 39.7279 3.97278ZM11.9184 27.8095V22.9031L25.5848 9.23673C25.982 8.83945 26.5978 8.83945 26.9951 9.23673L30.511 12.7526C30.9083 13.1499 30.9083 13.7657 30.511 14.163L16.8248 27.8095H11.9184ZM35.7551 27.8095H20.8571L24.8299 23.8367H35.7551V27.8095Z" fill="white"/>
</svg>
